<svg width="32" height="37" viewBox="0 0 32 37" fill="none" xmlns="http://www.w3.org/2000/svg">
<g id="Paper Upload">
<path id="Paper Upload_2" fill-rule="evenodd" clip-rule="evenodd" d="M19.4858 20.0946C20.0002 20.6142 20.834 20.6142 21.3484 20.0946C21.8806 19.575 21.8806 18.7329 21.3661 18.2133L16.275 13.0533C16.1508 12.9279 16.0089 12.8383 15.8492 12.7667C15.6896 12.695 15.5299 12.6592 15.3525 12.6592C15.1751 12.6592 14.9977 12.695 14.8381 12.7667C14.6784 12.8383 14.5365 12.9279 14.4123 13.0533L9.33891 18.2133C8.82447 18.7329 8.82447 19.575 9.33891 20.0946C9.85334 20.6142 10.6871 20.6142 11.2015 20.0946L14.0221 17.2279V25.8817C14.0221 26.6163 14.6075 27.2075 15.3525 27.2075C16.0798 27.2075 16.6652 26.6163 16.6652 25.8817V17.2279L19.4858 20.0946ZM29.1296 13.1709C29.5466 13.1661 30.0006 13.1608 30.4132 13.1608C30.8566 13.1608 31.2292 13.5192 31.2292 13.9671V28.3721C31.2292 32.8154 27.6458 36.4167 23.2465 36.4167H9.14377C4.51382 36.4167 0.770836 32.6363 0.770836 27.9779V8.66376C0.770836 4.22043 4.33643 0.583344 8.77125 0.583344H18.244C18.6875 0.583344 19.06 0.959594 19.06 1.40751V7.17668C19.06 10.4554 21.7209 13.1429 24.9849 13.1608C25.7311 13.1608 26.3935 13.1665 26.9754 13.1714C27.4311 13.1753 27.8374 13.1788 28.1958 13.1788C28.4483 13.1788 28.7756 13.175 29.1296 13.1709ZM29.625 10.5558C28.1668 10.5611 26.4497 10.5558 25.2132 10.5432C23.2513 10.5432 21.6352 8.91101 21.6352 6.92943V2.20659C21.6352 1.43439 22.5612 1.05097 23.0916 1.60818C24.4581 3.04185 26.55 5.2392 28.3179 7.09607C29.0333 7.84748 29.6956 8.54315 30.2352 9.10989C30.7514 9.65276 30.3718 10.554 29.625 10.5558Z" fill="#E7319D"/>
</g>
</svg>
