<svg width="24" height="24" viewBox="0 0 24 24" fill="none" xmlns="http://www.w3.org/2000/svg">
<g id="round-add-button-svgrepo-com 1">
<g id="Group">
<g id="Group_2">
<path id="Vector" d="M11.9997 1C5.93438 1 1 5.9346 1 12C1 18.0653 5.93438 23 11.9997 23C18.0652 23 23 18.0653 23 12C23 5.9346 18.0652 1 11.9997 1ZM11.9997 21.5574C6.73001 21.5574 2.44265 17.2699 2.44265 12C2.44265 6.73006 6.72995 2.44265 11.9997 2.44265C17.2697 2.44265 21.5572 6.73006 21.5572 12C21.5573 17.2699 17.2697 21.5574 11.9997 21.5574Z" fill="#2FA551"/>
<path id="Vector_2" d="M16.37 11.2786H12.7201V7.62855C12.7201 7.23019 12.3971 6.90723 11.9988 6.90723C11.6004 6.90723 11.2774 7.23024 11.2774 7.62855V11.2788H7.62758C7.22927 11.2788 6.90625 11.6018 6.90625 12.0001C6.90625 12.3985 7.22927 12.7214 7.62758 12.7214H11.2773V16.3714C11.2773 16.7697 11.6002 17.0926 11.9986 17.0926C12.3969 17.0926 12.7199 16.7697 12.7199 16.3714V12.7213H16.3701C16.7684 12.7213 17.0914 12.3983 17.0914 12C17.0914 11.6016 16.7684 11.2786 16.37 11.2786Z" fill="#2FA551"/>
</g>
</g>
</g>
</svg>
